<svg xmlns="http://www.w3.org/2000/svg"
	xmlns:xlink="http://www.w3.org/1999/xlink" x="0px" y="0px" viewBox="0 0 214 61" style="enable-background:new 0 0 214 61;" xml:space="preserve">
	<style type="text/css">
	.apple-logo-0{fill:#1A87C7;}
	.apple-logo-1{fill:#00895A;}
	.apple-logo-2{fill:#35508A;}
	.apple-logo-3{fill:#FFCC05;}
	.apple-logo-4{fill:#F7931E;}
	.apple-logo-5{fill:#F7C314;}
	.apple-logo-6{fill:#71BF45;}
	.apple-logo-7{fill:#EE5BA1;}
	.apple-logo-8{fill:#D92728;}
	.apple-logo-9{fill:#F7941D;}
	.apple-logo-10{fill:#FC800A;}
	</style>
	<g>
		<g>
			<path class="apple-logo-0" d="M27.6,42.2c-0.4,1.5-0.8,2.5-1.7,3.6c-7.8,2-13.7,5.2-18.9,8C13.7,47.2,19.8,44.1,27.6,42.2z"/>
			<path class="apple-logo-0" d="M40,44.1c-1.4,0-1.5-0.1-2.9,0c0-1,0.2-1.8,0.5-3c1.1,0,0.8,0.1,1.9,0.1
			C39.7,42.3,40.1,43.2,40,44.1L40,44.1z"/>
			<path class="apple-logo-0" d="M70.6,55c-7.6-5.9-13.8-9-21-10.3c0.2-0.8,0.2-1.4,0.5-2.2C60.4,44.7,67.5,50,70.6,55z"/>
			<g>
				<path class="apple-logo-1" d="M47.2,34.8c0,1.4-1.2,2.6-2.6,2.6c-1.5,0-2.6-1.2-2.6-2.6c0-1.4,1.2-2.6,2.6-2.6
				C46,32.2,47.2,33.4,47.2,34.8z"/>
				<path class="apple-logo-1" d="M57.9,29c-0.7,0.7-1.4,1.4-2,2.1c-1,1.1-1.9,2.2-2.7,3.3c-1.9,2.7-3.3,5.3-4.2,7.8
				c-0.3,0.8-0.6,1.7-0.8,2.5c-2.5,8.6-0.6,15.4-0.6,15.6c-0.2-0.3-5-8-5.2-11.4c-1.9,2.4-5.4,2.8-5.4,2.8s3.4-3.1,3.6-7.7
				c0-0.9-0.1-1.9-0.4-2.9c-0.3-1.3-1-2.6-2-3.9c-0.7-1-1.6-2-2.7-3c1.2,0.8,2.2,1.5,3.1,2.1c6.8,4.6,7,3.7,14.3-3
				c0.9-0.8,1.8-1.6,2.9-2.6C56.5,30.3,57.2,29.7,57.9,29L57.9,29z"/>
			</g>
			<path class="apple-logo-2" d="M47.1,24.1c-0.5,0.4-0.9,0.9-1.3,1.3c-3.5,3.7-5.8,7.4-7.2,11c-0.9-0.6-1.9-1.3-3.1-2.1
			c1.1,1,2,2,2.7,3c-0.5,1.3-0.9,2.7-1.2,3.9c-0.3,1.1-0.5,2.1-0.6,3.1c-0.9,6.4,0.3,11,0.4,11.2c-0.2-0.3-4.4-7-5.1-10.7
			c-0.1-0.3-0.1-0.5-0.1-0.8c-0.3,0.3-0.6,0.6-1,1c-2.5,2-7.2,3.9-7.4,3.9c0.1-0.1,1.9-1.2,3.6-3.1c0.9-1,1.8-2.3,2.4-3.8
			c1.1-2.7,1-6.1-1.8-9.8c0,0-0.2-0.2-0.5-0.6c-0.6-0.6-1.5-1.6-2.1-2.2c0.8,0.6,2.4,1.7,2.4,1.7c8.4,5.9,7.3,4,18.5-5.7
			C46.1,24.9,46.6,24.5,47.1,24.1L47.1,24.1z"/>
			<path class="apple-logo-2" d="M36.4,29.9c0,1.4-1.2,2.6-2.6,2.6c-1.5,0-2.6-1.2-2.6-2.6c0-1.4,1.2-2.6,2.6-2.6
			C35.2,27.3,36.4,28.5,36.4,29.9z"/>
			<path class="apple-logo-3" d="M55.5,29.6c-1.1,0.9-2.1,1.8-3,2.6c-1-2.5-3.4-4.9-5.6-6.4c0.3-1,0.7-2.1,0.7-2.1
			s-1.4,0.7-2.3,1.2c-6.3-2.8-14.1-1.3-18,5.8c0,0-2.5-1.3-3.3-1.9c0.7,0.6,2.1,2.8,2.7,3.4c-1.3,2.7-1.8,5.6-1.5,9.8
			c-1.6,0.5-4,1.2-4,1.2S18.7,20.6,39.3,20C49.2,20.5,53.4,25.5,55.5,29.6L55.5,29.6z"/>
			<path class="apple-logo-3" d="M57.2,43.4c0,0-2.8-0.9-4-1.2c0.7-2.9,0.9-4.7,0.4-6.8c0.8-1.1,1.7-1.8,2.7-2.9
			C58.5,36,57.2,43.4,57.2,43.4z"/>
			<path class="apple-logo-4" d="M20.1,43.3c-2,1-4.9,2.5-4.9,2.5S10.4,14,39.3,13.9c28.8-0.1,24,32.3,24,32.3s-4-2.1-4.8-2.6
			C64.2,12.9,17.3,8.3,20.1,43.3L20.1,43.3z"/>
			<path class="apple-logo-0" d="M29.2,14.5c0,0-4.2-7-7.8-9.6c-0.3-1.8,1.2-3,2-2.8C23.8,3,27.8-2,30.7,7.4
			C32.9,14.8,29.2,14.5,29.2,14.5L29.2,14.5z"/>
			<path class="apple-logo-5" d="M18.6,22c0,0-6.4,1.4-10.9-2.6c-1.4-1.2-1.6-2.6-0.8-3c-0.7-2.9,2-4,7.4-0.6
			C22.9,17.7,18.6,22,18.6,22z"/>
			<path class="apple-logo-6" d="M14,33.4c0,0-4.4,2.9-9.2,1.4c-1.5-0.5-3.3-0.8-3.3-1.5c0.7-2.3,1.7-4,7-3.1
			C15.7,28.9,14,33.4,14,33.4L14,33.4z"/>
			<path class="apple-logo-7" d="M60.5,20.8c0,0,6.2-3.8,9.4-7.4c0.6-1.6,0.1-1.4-0.7-1.4c-0.8-2.8-4.8-2.6-7.7,0.5
			C55.1,18.2,60.5,20.8,60.5,20.8z"/>
			<path class="apple-logo-8" d="M65.9,34.6c0,0,4.9,2,9.3-0.6c1.2,1.2,4.2-0.4,4-1.1c-1.2-2.1-3.6-4.7-8.6-2.7
			C63.3,30.6,65.9,34.6,65.9,34.6L65.9,34.6z"/>
			<path class="apple-logo-9" d="M42.5,5.5c0,0-0.7-3.3,2.2-4.7c2.9-1.3,5.1,5.4,4.3,6.9c0.6,0.3-2,4.3-2.9,5.9
			c-3.5,0.2-3.7-5.9-3.7-5.9L42.5,5.5L42.5,5.5z"/>
		</g>
	</g>
	<g>
		<path class="apple-logo-3" d="M84.6,49.6l2.6-9v-6.8l4-1.6l7-20.4h13.8l8.6,23.9l4.1,7.6v6.3h-9.5l-2.7-8.5H96.9l-2.3,8.5H84.6z
		 M100.5,32.8h9.1l-4.1-12.2h-1.1L100.5,32.8z"/>
		<g>
			<path class="apple-logo-10" d="M141.7,21.1c0.1-0.1,0.1-0.1,0.2-0.1c0.1,0,0.1,0,0.1,0.1v0c-0.8,0.6-1.6,1.3-2.4,1.8
			c-0.8,0.6-1.4,0.8-1.7,0.8c-0.3,0-0.4-0.1-0.4-0.4c0-0.3,0.1-0.6,0.4-0.9c0.3-0.3,0.5-0.5,0.8-0.8c0.3-0.2,0.4-0.4,0.4-0.4
			c0-0.1,0-0.2-0.1-0.2c-0.1-0.1-0.1-0.2-0.2-0.2c-0.2,0.2-0.6,0.5-1.2,1l-0.1-0.2c0.7-0.5,1.1-0.9,1.2-1.1v-0.1
			c0-0.3,0-0.5,0.1-0.5s0.2-0.2,0.4-0.4s0.3-0.3,0.4-0.3c0.1,0,0.1,0,0.2,0.1c0.1,0.1,0.1,0.1,0.1,0.2c0,0.1,0,0.1-0.1,0.2
			c0,0.1-0.1,0.1-0.1,0.2c0,0-0.1,0.1-0.1,0.2c-0.1,0.1-0.1,0.1-0.1,0.1c0,0,0,0.1,0,0.1c0,0.1,0,0.1-0.1,0.2
			c-0.1,0-0.1,0.1-0.1,0.2c0,0.1,0,0.2,0.1,0.4c0.1,0.2,0.1,0.4,0.1,0.5c0,0.1-0.2,0.3-0.6,0.7c-0.4,0.4-0.6,0.7-0.6,0.9
			c0,0.1,0.1,0.2,0.2,0.2c0.2,0,0.4-0.1,0.8-0.4l0.2-0.1c0.7-0.5,1.4-1,2-1.5L141.7,21.1z"/>
			<path class="apple-logo-10" d="M135.7,22.4c0.6,0,1.3-0.3,2.2-1l0.3,0.1c-1.1,0.9-2,1.3-2.7,1.3c-0.1,0-0.2,0-0.2,0
			c-0.3,0.4-0.6,0.6-1,0.9c-0.3,0.2-0.6,0.3-0.9,0.3c-0.4,0-0.6-0.2-0.6-0.7c0-0.5,0.4-1.1,1.1-1.8c-0.1-0.3-0.2-0.6-0.2-1
			c0-0.3,0.1-0.6,0.4-0.8c0.2-0.2,0.5-0.3,0.9-0.3c0.3,0,0.6,0.1,0.8,0.3c0.2,0.2,0.3,0.5,0.3,0.9c0,0.6-0.2,1.2-0.6,1.8
			C135.5,22.4,135.6,22.4,135.7,22.4z M135.1,22.2c0.3-0.6,0.5-1,0.5-1.4c0-0.4-0.1-0.7-0.3-0.9c-0.2-0.2-0.4-0.3-0.6-0.3
			c-0.4,0-0.6,0.2-0.6,0.6s0.1,0.8,0.3,1.2C134.6,21.8,134.9,22.1,135.1,22.2z M133.4,23.2c0,0.2,0.1,0.3,0.4,0.3
			c0.3,0,0.6-0.3,1.1-0.9c-0.3-0.2-0.5-0.4-0.8-0.8C133.6,22.4,133.4,22.8,133.4,23.2z"/>
			<path class="apple-logo-10" d="M126,23.1l-0.1,0.3c0,0,0,0,0,0c0.5,0,1.2-0.4,1.9-1.3c0.6-0.7,1.3-1.7,2.2-3
			c-0.3,0-0.8,0-1.5,0c-0.7,0-1.1,0-1.4,0c-0.2,0-0.4-0.1-0.4-0.3c0-0.1,0-0.1,0-0.1c0,0,0.4,0,1.1,0c0.7,0,1.5,0,2.4,0
			c1.7-2.4,3-4.1,4.1-5.1c-1.8,0.3-3.7,0.4-5.8,0.4c-0.8,0-1.7,0-2.7-0.1c-0.1,0-0.1,0-0.1,0.1c0,0,0,0.1,0,0.2
			c0,0.1-0.1,0.1-0.2,0.1c-0.1,0-0.3-0.1-0.5-0.2c-0.2-0.2-0.3-0.3-0.4-0.5c0-0.3,0.2-0.5,0.6-0.5c1.9,0.1,3.6,0.2,5.3,0.2
			c1.6,0,3.1-0.1,4.4-0.3c1.3-1.1,2.5-1.6,3.7-1.6c0.5,0,0.7,0.1,0.7,0.3c0,0.3-0.7,0.7-2,1.1c-0.7,0.2-1.4,0.4-2.3,0.6
			c-0.8,0.7-1.7,1.8-2.6,3.2c-0.3,0.5-0.8,1.1-1.3,2l2.4-0.2c0.2,0,0.3,0.1,0.3,0.4c0,0.1-0.1,0.2-0.3,0.3c-0.2,0.1-0.4,0.2-0.6,0.3
			c-0.2,0.1-0.3,0.3-0.3,0.5c0,0.2-0.1,0.3-0.2,0.3c-0.5,0-0.7-0.1-0.7-0.3c0-0.2,0.1-0.5,0.4-0.7c0,0,0-0.1-0.1-0.1l-1,0l-0.3,0
			c-1.4,2.1-2.5,3.5-3.2,4.3c-0.8,0.7-1.4,1-2,1c-0.4,0-0.6-0.2-0.6-0.5c0-0.2,0.1-0.4,0.2-0.6c0.2-0.2,0.3-0.3,0.5-0.3
			C125.9,23,126,23,126,23.1z M138.1,11.8c-0.8,0-1.6,0.3-2.5,1c1.2-0.2,2-0.5,2.4-0.7c0.2-0.1,0.2-0.2,0.2-0.2
			C138.3,11.9,138.2,11.8,138.1,11.8z"/>
		</g>
		<g>
			<path class="apple-logo-8" d="M194.2,49.6l-0.6-1.9l0.6-3.1V27.3h15.5l1.6,0.9l-2.1,4.4l-2.8-0.3h-6.6v3.5h8.5v4.9h-3.7
			l-4.7-0.3v4.2h9.4l3.7,3l-1.9,2H194.2z"/>
			<path class="apple-logo-6" d="M174.8,49.6l-0.6-1.9l0.6-3.1V27.3h5.7v12.9l-0.3,4.3h0.6l5.6-0.3l2.2-0.3l2.8,3.6l-1.5,2
			H174.8z"/>
			<path class="apple-logo-0" d="M152.5,49.6V32.4l-0.6-3.2l0.6-1.9h10.1c1.5,0,2.9,0.2,4.1,0.7c1.2,0.5,2.2,1.3,2.9,2.4
			c0.7,1.1,1.1,2.6,1.1,4.6c0,2-0.4,3.5-1.2,4.7c-0.8,1.1-1.9,1.9-3.2,2.4c-1.4,0.5-2.9,0.7-4.7,0.7h-3.5v1.6l0.3,3.1l-0.3,1.9
			H152.5z M158.2,37.9h3.1c1.1,0,2-0.2,2.6-0.6c0.6-0.4,1-1.2,1-2.3c0-0.8-0.2-1.4-0.5-1.7c-0.3-0.4-0.8-0.7-1.3-0.8
			c-0.5-0.1-1.2-0.2-1.9-0.2h-3.3L158.2,37.9z"/>
			<path class="apple-logo-7" d="M130.3,49.6V32.4l-0.6-3.2l0.6-1.9h10.1c1.5,0,2.9,0.2,4.1,0.7c1.2,0.5,2.2,1.3,2.9,2.4
			c0.7,1.1,1.1,2.6,1.1,4.6c0,2-0.4,3.5-1.2,4.7c-0.8,1.1-1.9,1.9-3.2,2.4c-1.4,0.5-2.9,0.7-4.7,0.7h-3.5v1.6l0.3,3.1l-0.3,1.9
			H130.3z M135.9,37.9h3.1c1.1,0,2-0.2,2.6-0.6c0.6-0.4,1-1.2,1-2.3c0-0.8-0.2-1.4-0.5-1.7c-0.3-0.4-0.8-0.7-1.3-0.8
			c-0.5-0.1-1.2-0.2-1.9-0.2h-3.3L135.9,37.9z"/>
		</g>
	</g>
</svg>
