<svg xmlns="http://www.w3.org/2000/svg"
	xmlns:xlink="http://www.w3.org/1999/xlink" x="0px" y="0px" viewBox="0 0 100 100" style="enable-background:new 0 0 100 100;" xml:space="preserve">
	<path d="M16.4,52.6c0-0.1,0-0.1,0-0.2C16.5,52.4,16.4,52.5,16.4,52.6c0.3,0.1,0.6-0.1,0.9-0.1c0.1,0,0.2,0.1,0.2,0.1
	c0.1,0,0.2,0,0.3,0c0.1,0,0.2,0.2,0.3,0.1c0.3,0.1,0.6,0,0.9,0.2c0.1,0,0.1,0,0.2,0.1c0.1,0,0.2,0,0.4,0.1c0.4,0.1,0.9,0.2,1.3,0.1
	c0.3,0,0.5,0,0.8,0c0.3,0.2,0.6,0.2,1,0.2c0.4,0,0.9,0.1,1.3,0c0.2,0,0.4,0,0.6,0.2c0.3,0,0.6,0.1,0.9,0.1c0.4,0,0.8,0,1.1,0.1
	c0.3,0,0.5,0.1,0.8,0.1c0.4,0,0.8,0,1.2,0c0.1,0,0.1,0,0.2-0.1c0.2,0.1,0.3,0.1,0.5,0.2c0.1-0.1,0.1-0.1,0.2-0.1
	c0.1,0,0.2,0.1,0.3,0.1c-0.1,0.1-0.1,0.1-0.2,0.2c0.1,0,0.2,0,0.3,0c0.1-0.1,0.1-0.1,0.2-0.2c0.2,0,0.2,0.1,0.3,0.2
	c0.3,0,0.6,0,0.9,0.1c0.5,0.1,1,0.1,1.5,0.1c0.2,0,0.4,0,0.5-0.1c0.3,0.1,0.6,0.1,0.9,0.1c0.7,0.1,1.3,0.2,2,0.2
	c0.1,0,0.2,0.1,0.3,0c0.1,0,0.2-0.1,0.3-0.2c0.2,0.1,0.3,0.3,0.5,0.2c0.2-0.1,0.4,0.1,0.6-0.1c0,0,0.1,0,0.2,0
	c0.1,0.1,0.2,0.1,0.4,0c0.1,0,0.2,0,0.2,0c0.2,0.1,0.4,0.2,0.7,0.1c0.1,0,0.2,0,0.3,0c0.3,0,0.6,0,0.7-0.1c0.3,0.1,0.6,0.1,0.8,0.1
	c0.4,0,0.7,0,1.1,0c0,0,0,0,0,0c0.7,0.1,1.4,0,2.1,0.1c0.2-0.1,0.4,0.1,0.6,0c0.2,0,0.3,0,0.4,0c0.1,0,0.3,0,0.5,0
	c0.3,0,0.5-0.1,0.8-0.1c0.1,0,0.3,0,0.5,0c0.1,0,0.2,0,0.2,0c0.4-0.1,0.7-0.1,1.1,0c0.1,0,0.1,0,0.2,0c0.1,0,0.2,0,0.3,0
	c0.3,0,0.6,0,1,0c0.1,0,0.1,0,0.2,0c0.2,0.2,0.4,0.1,0.6,0c0.1,0,0.2-0.1,0.4-0.1c0.3,0.1,0.6,0.1,1,0.1c0,0,0,0,0,0
	c0.3,0.1,0.6,0,0.8,0c0.1,0,0.3,0,0.4,0c0.3,0,0.5,0.1,0.8,0c0.1,0,0.1,0,0.2,0c0.1,0,0.2,0.1,0.2,0c0.3-0.1,0.5,0,0.8,0
	c0.1,0,0.2,0,0.3,0c0.3-0.1,0.5,0,0.8-0.1c0.1,0,0.2,0,0.2,0c0.3-0.1,0.7-0.1,1,0c0.1,0,0.2-0.1,0.2-0.1c0.4,0.1,0.8,0.2,1.2,0.1
	c0.1,0,0.3-0.1,0.4-0.1c0.2,0,0.5-0.1,0.7,0c0.2,0.1,0.4,0.1,0.7,0c0.1,0,0.1,0,0.2,0c0.5,0,1.1,0,1.6-0.1c0.4-0.1,0.8,0,1.3-0.1
	c0.3,0,0.7-0.1,1-0.1c0.3,0,0.7-0.1,1,0c0,0,0.1,0,0.1,0c0.4-0.1,0.8-0.1,1.1-0.1c0.3,0,0.5,0,0.8,0c0.5-0.1,0.9-0.1,1.4-0.1
	c0.4,0,0.8,0,1.1-0.1c0.6-0.1,1.2-0.2,1.9-0.1c0.1,0,0.2,0,0.2,0c0.6,0,1.1-0.1,1.7-0.1c0.6,0,1.3-0.1,1.9-0.1
	c0.6-0.1,1.1-0.1,1.7-0.1c0.2,0,0.4,0,0.6,0c0.1,0,0.3,0,0.4,0.1c0,0.4-0.3,0.6-0.6,0.8c-0.2,0-0.2,0.2-0.3,0.3
	c-0.2,0.1-0.4,0.1-0.4,0.3c0,0,0,0-0.1,0.1c-0.3,0.1-0.6,0.2-0.8,0.5c-0.2,0.1-0.4,0.3-0.5,0.4c-0.1,0.1-0.2,0.2-0.3,0.2
	c-0.3,0.1-0.4,0.2-0.6,0.4c-0.2,0.1-0.3,0.3-0.5,0.4c0,0-0.1,0.1-0.1,0.1c-0.2,0.3-0.6,0.5-0.8,0.8c-0.3,0.2-0.6,0.5-0.8,0.8
	c-0.2,0.1-0.3,0.3-0.5,0.3c-0.1,0.2-0.2,0.3-0.2,0.4c0,0.1,0.1,0.2,0.1,0.3c-0.1,0-0.2-0.1-0.3,0c0,0.1,0.1,0.2,0.1,0.3
	c-0.1,0.3-0.4,0.3-0.4,0.5c0.2,0.1,0.3,0.3,0.5,0.3c0,0.1,0.1,0.2,0.1,0.2c0.1,0,0.2-0.1,0.3-0.1c0,0.1-0.1,0.2-0.1,0.3
	c0.1,0,0.2,0,0.2,0c0.1,0,0.2,0.1,0.2,0.1c0.2-0.2,0.4-0.3,0.6-0.4c0.2-0.1,0.4-0.2,0.6-0.4c0,0,0.1,0,0.1,0v0.2
	c0.4,0,0.8-0.1,1.1-0.4c0.4-0.3,0.8-0.6,1.2-0.9c0.1-0.1,0.2-0.1,0.3-0.2c0,0,0.1,0,0.1,0c-0.2,0.2-0.3,0.3-0.5,0.4
	c-0.1,0-0.1,0.1-0.1,0.2c0.3-0.1,0.6,0,0.8-0.4c0,0,0,0,0,0c0.2,0,0.4-0.2,0.5-0.3c0.2-0.1,0.5-0.2,0.7-0.1c0.2-0.2,0.5-0.3,0.7-0.5
	c0.2-0.1,0.4-0.3,0.6-0.4c0.2-0.1,0.4-0.4,0.7-0.4c0,0.1,0,0.2,0,0.3c0.3-0.2,0.6-0.4,0.9-0.6c0.5,0,0.8-0.2,1.1-0.6
	c0.6-0.1,1.2-0.4,1.6-0.9c0.1,0,0.3,0,0.5-0.1c0.1-0.1,0.1-0.1,0.2-0.2c0.1,0,0.1,0,0.2,0c0.1-0.3,0.4-0.3,0.6-0.3
	c0.4,0,0.7-0.2,0.9-0.4c0.4,0,0.7-0.3,1.1-0.5c0,0,0.1,0,0.2,0.1c0.1,0,0.2-0.1,0.4-0.1c0-0.1,0-0.2,0.1-0.3c0,0.1,0,0.1,0.1,0.2
	c0.1-0.1,0.2-0.1,0.3-0.1c0.3-0.1,0.5-0.2,0.8-0.3c0.3-0.1,0.6-0.2,1-0.4c0,0,0.1,0,0.1,0c0.2,0,0.3,0,0.5,0c0.1,0,0.3-0.1,0.4-0.1
	c0.2,0,0.2-0.2,0.4-0.2c0.3,0,0.4-0.1,0.6-0.3c0.2-0.1,0.4-0.2,0.6-0.4c0.1-0.1,0.2-0.1,0.3-0.1c0.3-0.1,0.6-0.2,0.8-0.5
	c0.1-0.1,0.2-0.2,0.3-0.4c0.2-0.2,0.3-0.4,0.2-0.7c0.1,0,0.1,0,0.2-0.1c0.1-0.2,0.2-0.4,0.4-0.5c0.1,0,0.1-0.1,0.1-0.2
	c0-0.2,0.2-0.4,0.3-0.6c0.2-0.2,0.4-0.4,0.6-0.7c0-0.1,0-0.3,0-0.5c0-0.1-0.1-0.2-0.1-0.3c-0.2-0.2-0.4-0.4-0.6-0.5
	c-0.6-0.5-1.1-0.9-1.7-1.4c-0.2-0.2-0.4-0.4-0.7-0.5c-0.3-0.1-0.6-0.3-0.9-0.5c-0.7-0.4-1.5-0.8-2.2-1.2c-0.6-0.3-1.2-0.7-1.7-1.1
	c-0.6-0.4-1.1-0.8-1.7-1.2c-0.4-0.3-0.7-0.5-1.1-0.8c-0.4-0.3-0.8-0.5-1.2-0.7c-0.1,0-0.1-0.1-0.2-0.2c-0.3-0.3-0.6-0.6-1-0.8
	c-0.1,0-0.2-0.1-0.2-0.1c-0.2,0-0.4-0.1-0.5-0.2c-0.2-0.1-0.4-0.3-0.6-0.4c-0.6-0.4-1.1-0.6-1.7-0.9c-0.1-0.1-0.3-0.1-0.5-0.1
	c-0.1,0-0.1,0-0.2,0.1c0.3,0.3,0.7,0.4,0.9,0.7c-0.4-0.1-0.8-0.3-1.2-0.3c0.1,0.1,0.2,0.2,0.2,0.3c0,0,0,0.1,0,0.1c0,0,0,0,0,0
	c0.1,0,0.1,0,0.2,0c0.1,0.1,0.2,0.2,0.1,0.3c-0.3,0-0.6-0.3-0.9-0.2c0.1,0.1,0.3,0.1,0.5,0.2c-0.2,0-0.3,0.1-0.4,0.1
	c-0.1,0-0.2-0.1-0.2-0.1c0,0-0.1,0-0.1,0c-0.3,0-0.5,0-0.8,0c-0.1,0-0.2,0.1-0.2,0.2c0,0.1,0.1,0.2,0.1,0.2
	c-0.2,0.2-0.4,0.5-0.7,0.6c-0.1,0.2-0.1,0.4-0.2,0.6c0,0.1,0,0.2,0,0.4c-0.3,0-0.5,0-0.7,0.1c-0.1,0.2,0.1,0.3,0.1,0.5
	c-0.1,0-0.2,0-0.3,0c0.1,0.2,0.2,0.3,0.3,0.5c0.1,0.1,0.3,0.2,0.3,0.4c0,0,0.1,0.1,0.1,0.1c0.2,0,0.3,0.2,0.5,0.2
	c0.1,0,0.1-0.1,0.2-0.1c0.1,0.1,0.1,0.2,0.2,0.3c0.1,0,0.1,0,0.2,0c0,0.1,0.1,0.1,0.1,0.2c0.1,0,0.1,0,0.2,0
	c0.1,0.1,0.2,0.2,0.2,0.3c0.2,0.2,0.4,0.5,0.7,0.6c0.3,0.1,0.6,0.3,0.9,0.3c0.1,0,0.1,0,0.2,0.1c0,0.2,0.1,0.3,0.2,0.3
	c0.1,0,0.2,0,0.3,0c0,0.1-0.2,0.3,0,0.4h0.4c0.2,0.3,0.6,0.5,0.8,0.8v0.3c0.1,0,0.1,0,0.2,0c0-0.1,0.1-0.1,0.1,0c0,0,0,0,0,0
	c0,0-0.1,0-0.1,0c0,0,0,0,0,0c-0.1,0.1-0.3,0.1-0.5,0.1c-0.2,0-0.3,0-0.4,0c-0.2-0.1-0.3-0.1-0.4-0.2l0,0c0,0.1,0.1,0.2-0.1,0.2
	c0,0-0.1-0.1-0.1-0.1l0,0c-0.1,0-0.2,0-0.4,0c-0.1,0.2-0.2,0.2-0.4,0.1c-0.2-0.1-0.4-0.1-0.5,0c0,0-0.1,0.1-0.2,0.1
	c-0.2,0-0.3-0.1-0.4-0.1c-0.3,0.1-0.5,0.1-0.8,0.1c-0.2-0.2-0.3-0.2-0.5-0.1c-0.2,0.1-0.3,0.3-0.6,0.1c-0.2,0.2-0.4,0.1-0.6,0.1
	c-0.1-0.1-0.1-0.3-0.3-0.2c0,0.1,0,0.1,0.1,0.2c-0.2,0.1-0.4,0.1-0.7,0.1c-0.4,0-0.7,0.1-1.1,0.1c-0.2,0-0.3,0-0.4-0.2
	c-0.2,0-0.3,0.1-0.5,0.1c-0.1-0.1-0.1-0.1-0.1-0.2c-0.2,0.1-0.4,0.1-0.5,0.2c-0.1-0.1-0.1-0.1-0.2-0.1c0,0.1-0.1,0.1-0.2,0.1
	c-0.1,0-0.3,0-0.4,0c0,0-0.1,0.1-0.1,0.1c-0.1,0-0.1,0.1-0.2,0.1c-0.2,0.1-0.5,0-0.7,0c-0.1-0.1-0.1-0.1-0.2-0.2c-0.1,0-0.2,0-0.3,0
	c0,0.1,0,0.1,0,0.2c0,0.1-0.1,0.1-0.2,0.1c-0.3,0-0.6,0-0.8,0c-0.1-0.1-0.1-0.2-0.2-0.3c-0.1,0.3-0.3,0.2-0.4,0.3
	c-0.1,0.1-0.3,0.1-0.5,0.1c-0.2,0-0.4,0-0.5-0.2c-0.1,0.2-0.3,0.2-0.4,0.2c-0.3,0-0.6,0-0.9,0.1c-0.1,0-0.2,0.1-0.3,0.1
	c-0.1-0.1-0.2-0.1-0.4-0.1c-0.2,0-0.3,0.1-0.5,0.1c-0.1-0.1-0.2-0.2-0.3-0.2c0,0,0,0-0.1,0c-0.1,0.1-0.2,0.1-0.2,0.2
	c-0.2,0-0.4,0-0.5-0.1c0-0.1-0.1-0.1-0.1-0.2c-0.1,0.1-0.3,0.2-0.3,0.2c-0.2,0-0.1-0.2-0.3-0.1c0,0.1-0.1,0.1-0.1,0.2
	c-0.3,0.1-0.6,0.2-0.9,0c0-0.1,0-0.1,0-0.2c-0.1,0-0.3-0.1-0.4,0c0,0,0,0,0,0.1c0,0,0,0,0-0.1c-0.1,0.1-0.1,0.2-0.2,0.2
	c-0.1,0-0.1,0-0.1,0c-0.5,0-1,0-1.5,0c-0.1,0-0.2-0.1-0.2-0.1l0,0c0,0,0,0.1-0.1,0.1c-0.2,0-0.4,0.1-0.5,0.1c-0.1,0-0.3,0.1-0.4,0
	c-0.4-0.1-0.9,0-1.3,0.1c-0.2,0.1-0.3,0.1-0.5,0c-0.3-0.1-0.5-0.1-0.8-0.1c-0.2,0-0.4,0-0.6,0c-0.2,0.1-0.4,0-0.7,0c0,0-0.1,0-0.1,0
	c-0.2,0.1-0.4,0.2-0.6,0.2c-0.2,0-0.5,0.1-0.7,0.1c-0.1,0-0.2,0-0.3-0.1c-0.1,0-0.2-0.1-0.3-0.1c-0.1,0-0.2,0-0.3,0c0,0-0.1,0-0.1,0
	c-0.3,0.1-0.5,0.1-0.8,0.2c-0.4,0-0.8,0.1-1.2,0.1c0,0,0,0-0.1,0.1c0,0,0.1,0.1,0.1,0.1c-0.1,0.2-0.3,0-0.4,0c-0.1,0-0.3,0-0.4,0.1
	c-0.1-0.2,0-0.2,0.1-0.2c-0.1,0-0.2-0.1-0.2-0.1c-0.1,0.2-0.3,0.3-0.4,0.3c0-0.1,0.2-0.1,0.1-0.3c-0.1,0-0.2,0-0.3,0
	c-0.3,0-0.5,0-0.8,0c-0.3-0.1-0.6,0-0.9,0c0,0,0,0-0.1,0.1c0,0.1,0,0.2,0,0.2c-0.4,0.1-0.4,0.1-0.6,0c-0.2-0.1-0.4,0.1-0.6,0
	c0,0-0.1,0-0.1,0c0,0,0,0-0.1,0.1c0,0.1,0.1,0.2-0.1,0.2c-0.1,0-0.2-0.1-0.3-0.3c0,0-0.1,0-0.1,0c-0.1,0-0.2,0.1-0.2,0.1
	c-0.4-0.2-0.7-0.5-1.1-0.5c-0.1,0.1-0.2,0.2-0.3,0.3c-0.1,0-0.3,0.1-0.4,0.1c-0.2-0.2-0.4,0-0.6-0.1c-0.1,0.1-0.2,0.1-0.4,0.2
	c-0.2-0.1-0.4-0.1-0.6-0.1c-0.1,0-0.2,0-0.2,0V49c-0.2,0-0.2-0.1-0.2-0.1c0-0.1,0.1-0.1,0.2-0.1c-0.3-0.1-0.6-0.2-0.9-0.1
	c-0.2,0-0.4,0-0.5-0.1c-0.1-0.1-0.3-0.1-0.4,0c0,0-0.1,0-0.1,0c0,0,0.1,0,0.1,0c0,0,0.1,0,0.1,0.1c0,0,0,0,0,0c0,0-0.1,0-0.1,0
	c0,0,0-0.1,0-0.1c-0.1-0.1-0.3-0.1-0.4-0.1c-0.2,0-0.4,0.1-0.6,0.2c0,0.2,0,0.3,0,0.5c-0.1,0-0.2-0.1-0.2-0.1v-0.3
	c-0.2-0.1-0.3,0.1-0.5,0.1c-0.1-0.1-0.1-0.3-0.3-0.2c0,0,0,0.1,0,0.2c-0.2,0-0.4,0.1-0.6,0.1c0-0.1,0-0.1,0-0.2c0.2,0,0.4,0,0.6,0
	c-0.3-0.1-0.6-0.1-0.8,0.1c0,0-0.1,0-0.1,0c-0.1-0.1-0.3,0-0.4,0c-0.2,0-0.3,0.1-0.4,0.1c-0.1,0-0.1,0-0.2,0c-0.1-0.1,0-0.2-0.1-0.2
	c0,0,0-0.1,0-0.2c-0.2,0.1-0.4,0.1-0.6,0.2c0,0.1,0,0.1,0,0.2c-0.2-0.1-0.4-0.1-0.6-0.1c-0.1-0.2-0.2-0.3-0.3-0.4
	c-0.1,0.1-0.2,0.2-0.2,0.2c0,0-0.1-0.1-0.1-0.1c-0.1,0.1-0.3,0-0.3,0.2c0,0.1-0.2,0-0.3,0c-0.3-0.3-0.3-0.3-0.6-0.3
	c0.1,0.1,0.1,0.2,0.1,0.3c-0.5,0.1-0.5,0.1-0.9-0.1c-0.1,0-0.1,0-0.2,0c-0.1-0.1-0.2-0.3-0.5-0.2c-0.1,0-0.1,0.1-0.2,0.2
	c-0.5,0-1-0.1-1.5-0.1c-0.3,0-0.5,0-0.8,0.1c-0.1-0.1-0.2-0.2-0.3-0.2c-0.3,0-0.6-0.1-0.9,0c-0.1,0-0.2,0-0.3,0
	c-0.4-0.1-0.8-0.1-1.3-0.1c-0.4,0-0.9-0.1-1.4-0.1c-0.1,0-0.2-0.1-0.3-0.1c-0.1,0-0.3,0-0.4,0c0,0,0,0.1-0.1,0.1
	c0.1,0.1,0.2-0.1,0.3,0.1c-0.1,0-0.1,0.1-0.2,0.1c-0.1,0.1-0.1,0.1-0.2,0.1c-0.2,0-0.5,0-0.7-0.1c0,0,0,0,0-0.1
	c0-0.1,0.2-0.1,0.1-0.2c-0.1-0.1-0.2,0-0.3,0.1c-0.2,0.1-0.4,0.1-0.7,0.1c-0.2,0-0.5,0-0.7,0c-0.1,0-0.1,0.1,0,0.2
	c0.3-0.1,0.5-0.1,0.8,0c0.2,0.1,0.4,0.1,0.6,0.1c0.3,0,0.6,0.1,0.9,0.1c0,0,0.1,0.1,0.1,0.1c0,0,0.1,0,0.1,0c0,0-0.1,0-0.1,0
	c-0.1,0-0.2,0-0.3,0.1c-0.3,0.1-0.7-0.1-1,0c-0.1,0-0.3-0.1-0.4-0.1c-0.4-0.1-0.9,0-1.3-0.2c-0.7,0-1.4-0.1-2.1-0.2
	c-0.4-0.1-0.8-0.2-1.2,0c-0.1,0-0.2,0-0.3,0c-0.5-0.1-1.1-0.2-1.6-0.2c-0.2,0-0.4,0-0.5,0c-0.2-0.2-0.5-0.2-0.7-0.2
	c-0.1,0-0.1,0-0.2,0c-0.2-0.1-0.4-0.1-0.6-0.1c-0.2,0-0.4,0-0.5-0.1c-0.1,0-0.3,0-0.4,0.1c0.1,0.1,0.1,0.2,0.2,0.3
	c-0.2,0.1-0.4,0-0.5,0.2c0.1,0,0.2-0.1,0.3,0c-0.1,0-0.2,0-0.3,0c-0.1,0-0.2,0-0.3,0c-0.2,0-0.4-0.1-0.6-0.1c-0.5-0.1-1-0.1-1.5-0.2
	c0,0.2,0.1,0.1,0.2,0.2c0.1,0,0.2,0,0.2,0.2c-0.1,0.1-0.3,0.1-0.4,0.1c-0.1,0-0.2-0.1-0.3-0.1c-0.2,0-0.4-0.1-0.6-0.1
	c-0.2,0-0.4,0-0.6-0.1C7.6,48,7.3,48,6.9,48c-0.1,0-0.2,0-0.2,0.1c0.2,0,0.4,0.2,0.6,0.1c0.1,0,0.2,0.1,0.1,0.2
	c-0.2,0.1-0.5,0-0.7-0.1c-0.3,0.3-0.7,0.1-1.1,0.1c0,0.1,0.1,0.2,0.1,0.2c-0.1,0.1-0.3,0-0.4,0.2c0.2,0,0.3,0,0.5,0
	C5.9,49,6.1,49,6.2,49.2c-0.1,0-0.2,0.1-0.2,0.1c-0.3,0-0.7,0-1-0.2c-0.1,0-0.2-0.1-0.4-0.1c-0.1,0-0.2,0-0.4,0
	c-0.1,0-0.3,0.1-0.4,0.1c-0.1,0-0.2,0-0.3,0c0.1,0.2,0.1,0.3,0.1,0.4c0,0.2,0.2,0.2,0.2,0.4c0,0,0.1,0,0.1,0c0,0,0,0,0,0.1
	c0,0,0,0,0,0c0,0-0.1,0-0.1,0c-0.1,0-0.2,0-0.4,0c0.1,0.1,0.2,0.2,0.3,0.2c0.1,0,0.3,0,0.4,0.1c0.4,0,0.8,0.2,1.2,0.2
	c0.4,0,0.7,0.2,1,0.2c0.1,0,0.3,0,0.3,0.1c0.2,0.2,0.5,0.1,0.8,0.1c0.1,0,0.1-0.1,0.2-0.1c0.1,0,0.1,0.2,0.2,0.1
	C8.2,51,8.3,51.1,8.5,51c0.1,0,0.2,0.1,0.3,0.1c0.1,0,0.2,0.1,0.3,0.1c0,0,0-0.1-0.1-0.1c0,0,0,0,0,0c0,0,0,0.1,0,0.1
	c0.4,0.1,0.8,0.2,1.1,0.3c0.2,0,0.4-0.1,0.6-0.1c0.2,0.1,0.4,0.2,0.6,0.2c0,0.1,0,0.1,0,0.2c0.2,0.1,0.3,0,0.4,0
	c0.1,0,0.3,0,0.5,0.1c0,0,0.1-0.1,0.2-0.1v0.2c0.3,0,0.7,0.1,1,0.1c0.2,0,0.4,0.1,0.7,0.1c0.2,0,0.4,0,0.5,0.1
	c0.3,0.2,0.7,0.2,1,0.2c0.1-0.1,0.2-0.1,0.2-0.2C16.2,52.4,16.2,52.5,16.4,52.6L16.4,52.6z"/>
</svg>
