<svg xmlns="http://www.w3.org/2000/svg"
	xmlns:xlink="http://www.w3.org/1999/xlink" x="0px" y="0px" viewBox="0 0 100 100" style="enable-background:new 0 0 100 100;" xml:space="preserve">
	<path d="M83.6,52.6c0.2-0.1,0.2-0.2,0.3-0.3c0.1,0.1,0.1,0.1,0.2,0.2c0.3-0.1,0.7-0.1,1-0.2c0.2-0.1,0.3-0.1,0.5-0.1
	c0.2,0,0.4,0,0.7-0.1c0.3-0.1,0.7-0.1,1-0.1v-0.2c0.1,0.1,0.2,0.1,0.2,0.1c0.2,0,0.4-0.1,0.5-0.1c0.1,0,0.2,0.1,0.4,0
	c0-0.1,0-0.1,0-0.2c0.2-0.1,0.4-0.1,0.6-0.2c0.2,0,0.4,0.1,0.6,0.1c0.4-0.1,0.8-0.2,1.1-0.3c0,0,0-0.1,0-0.1c0,0,0,0,0,0
	c0,0,0,0.1-0.1,0.1c0.1,0,0.2-0.1,0.3-0.1c0.1,0,0.2-0.1,0.3-0.1c0.2,0,0.4,0,0.5-0.1c0.1,0.1,0.1-0.1,0.2-0.1
	c0.1,0,0.1,0.1,0.2,0.1c0.3,0,0.5,0.1,0.8-0.1c0.1-0.1,0.2-0.1,0.3-0.1c0.4,0,0.7-0.2,1-0.2c0.4,0,0.8-0.2,1.2-0.2
	c0.1-0.1,0.2-0.1,0.4-0.1c0.1,0,0.1-0.1,0.3-0.2c-0.2,0-0.3,0-0.4,0c0,0-0.1,0-0.1,0c0,0,0,0,0,0c0,0,0-0.1,0-0.1c0,0,0.1,0,0.1,0
	c0-0.2,0.2-0.2,0.2-0.4c0-0.1,0.1-0.3,0.1-0.4c-0.1,0-0.2,0-0.3,0c-0.1,0-0.2-0.1-0.4-0.1c-0.1,0-0.2,0-0.4,0c-0.1,0-0.2,0-0.4,0.1
	c-0.3,0.1-0.7,0.1-1,0.2c-0.1,0-0.1,0-0.2-0.1c0.1-0.2,0.4-0.2,0.4-0.4c0.2,0,0.3,0,0.5,0c-0.1-0.2-0.3-0.1-0.4-0.2
	c0-0.1,0-0.1,0.1-0.2c-0.4,0-0.8,0.2-1.1-0.1c-0.2,0.1-0.5,0.1-0.7,0.1c0-0.1,0.1-0.2,0.1-0.2c0.2,0.1,0.4-0.1,0.6-0.1
	c0-0.2-0.2-0.1-0.2-0.1c-0.3,0-0.7,0.1-1,0.2c-0.2,0.1-0.4,0.1-0.6,0.1c-0.2,0-0.4,0.1-0.6,0.1c-0.1,0-0.2,0-0.3,0.1
	c-0.2,0-0.3,0-0.4-0.1c0-0.1,0.1-0.1,0.2-0.2c0.1,0,0.2,0,0.2-0.2c-0.5,0.1-1,0.1-1.5,0.2c-0.2,0-0.4,0.1-0.6,0.1
	c-0.1,0-0.2,0-0.3,0c-0.1,0-0.2,0-0.3,0c0.1-0.1,0.2,0,0.3,0c-0.1-0.2-0.3-0.1-0.5-0.2c0.1-0.1,0.1-0.2,0.2-0.3
	c-0.1-0.1-0.2-0.1-0.4-0.1c-0.2,0-0.4,0-0.5,0.1c-0.2,0-0.4,0-0.6,0.1c-0.1,0-0.1,0-0.2,0c-0.2,0-0.5,0-0.7,0.2c-0.2,0-0.4,0-0.5,0
	c-0.6,0-1.1,0.1-1.6,0.2c-0.1,0-0.2,0.1-0.3,0c-0.4-0.1-0.8,0-1.2,0c-0.7,0.1-1.4,0.2-2.1,0.2c-0.4,0.2-0.9,0.1-1.3,0.2
	c-0.1,0-0.3,0.1-0.4,0.1c-0.3,0-0.7,0.1-1,0c-0.1,0-0.2,0-0.3-0.1c0,0-0.1,0-0.1,0c0,0,0.1,0,0.1,0c0,0,0.1-0.1,0.1-0.1
	c0.3,0,0.6-0.1,0.9-0.1c0.2,0,0.4,0,0.6-0.1c0.3-0.1,0.6-0.1,0.8,0c0.1-0.1,0-0.2,0-0.2c-0.2,0-0.5,0-0.7,0c-0.2,0-0.4,0-0.7-0.1
	c-0.1-0.1-0.2-0.1-0.3-0.1c-0.1,0.1,0.1,0.1,0.1,0.2c0,0,0,0.1,0,0.1c-0.2,0-0.4,0-0.7,0.1c-0.1,0-0.1-0.1-0.2-0.1
	c-0.1,0-0.1-0.1-0.2-0.1c0.1-0.2,0.2,0,0.3-0.1c0,0,0-0.1-0.1-0.1c-0.1,0-0.3,0-0.4,0c-0.1,0-0.2,0.1-0.3,0.1
	c-0.5,0-0.9,0.1-1.4,0.1c-0.4,0-0.8,0.1-1.3,0.1c-0.1,0-0.2,0-0.3,0c-0.3-0.1-0.6,0-0.9,0c-0.1,0-0.2,0-0.3,0.2
	c-0.3-0.1-0.5-0.1-0.8-0.1c-0.5,0-1,0.1-1.5,0.1c-0.1-0.1-0.1-0.1-0.2-0.2c-0.2-0.1-0.3,0.1-0.5,0.2c-0.1,0-0.2,0-0.2,0
	c-0.4,0.2-0.4,0.2-0.9,0.1c0-0.1,0.1-0.2,0.1-0.3c-0.4,0-0.4,0.1-0.6,0.3c-0.1,0.1-0.2,0.1-0.3,0c-0.1-0.2-0.2-0.1-0.3-0.2
	c0,0-0.1,0.1-0.1,0.1c-0.1-0.1-0.1-0.1-0.2-0.2c-0.1,0.2-0.2,0.3-0.3,0.4c-0.2-0.1-0.4,0-0.6,0.1c0-0.1,0-0.1,0-0.2
	c-0.2-0.1-0.4-0.1-0.6-0.2c0,0.1,0,0.2,0,0.2c-0.1,0,0,0.2-0.1,0.2c-0.1,0-0.1,0-0.2,0c-0.1,0-0.3-0.2-0.4-0.1c-0.1,0-0.2-0.1-0.4,0
	c0,0-0.1,0-0.1,0c-0.3-0.2-0.5-0.2-0.8-0.1c0.2,0,0.4,0,0.6,0c0,0.1,0,0.2,0,0.2c-0.2,0-0.4-0.1-0.6-0.1c0-0.1,0-0.1,0-0.2
	c-0.2,0-0.2,0.2-0.3,0.2c-0.2,0-0.3-0.2-0.5-0.1V49c0,0-0.1,0.1-0.2,0.1c0-0.2,0-0.3,0-0.5c-0.2-0.1-0.4-0.2-0.6-0.2
	c-0.2,0-0.3,0-0.4,0.1c0,0,0,0.1,0,0.1c0,0-0.1,0-0.1,0c0,0,0,0,0,0c0,0,0.1-0.1,0.1-0.1c0,0,0,0,0.1,0c0,0-0.1,0-0.1,0
	c-0.1-0.1-0.3-0.1-0.4,0c-0.2,0.1-0.4,0.2-0.5,0.1c-0.3-0.1-0.6,0-0.9,0.1c0.1,0,0.1,0.1,0.2,0.1c0,0.1,0,0.1-0.2,0.1v-0.3
	c-0.1,0-0.2,0-0.2,0c-0.2,0-0.4,0-0.6,0.1c-0.1,0-0.2-0.1-0.4-0.2c-0.2,0.1-0.4,0-0.6,0.1c-0.2,0-0.3-0.1-0.4-0.1
	c-0.1-0.1-0.2-0.2-0.3-0.3c-0.5,0-0.8,0.3-1.1,0.5c-0.1,0-0.2-0.1-0.2-0.1c0,0-0.1,0-0.1,0c-0.1,0.1-0.1,0.2-0.3,0.3
	c-0.1,0-0.1-0.1-0.1-0.2c0,0,0,0-0.1-0.1c0,0-0.1-0.1-0.1,0c-0.2,0.1-0.4-0.1-0.6,0c-0.2,0.1-0.3,0.1-0.6,0c0-0.1,0-0.2,0-0.2
	c0,0,0,0-0.1-0.1c-0.3-0.1-0.6-0.1-0.9,0c-0.3,0-0.5,0-0.8,0c-0.1,0-0.2,0-0.3,0c-0.1,0.2,0.1,0.2,0.1,0.3c-0.2,0-0.3-0.1-0.4-0.3
	c-0.1,0-0.1,0.1-0.2,0.1c0.1,0.1,0.2,0.1,0.1,0.2c-0.1,0-0.2,0-0.4-0.1c-0.1,0-0.3,0.1-0.4,0c0,0,0.1-0.1,0.1-0.1c0,0,0-0.1-0.1-0.1
	c-0.4-0.1-0.8-0.1-1.2-0.1c-0.3,0-0.6,0-0.8-0.2c0,0-0.1,0-0.1,0c-0.1,0.1-0.2,0.1-0.3,0c-0.1,0-0.2,0-0.3,0.1
	c-0.1,0-0.2,0.1-0.3,0.1c-0.2,0-0.5-0.1-0.7-0.1c-0.2,0-0.4-0.1-0.6-0.2c0,0-0.1,0-0.1,0c-0.2,0-0.5,0.1-0.7,0
	c-0.2-0.1-0.4-0.1-0.6,0c-0.3,0.1-0.5,0.1-0.8,0.1c-0.2,0.1-0.3,0-0.5,0c-0.4-0.2-0.8-0.3-1.3-0.1c-0.1,0-0.3,0-0.4,0
	c-0.2,0-0.4-0.1-0.5-0.1c0,0,0-0.1-0.1-0.1l0,0c-0.1,0-0.2,0.1-0.2,0.1c-0.5,0-1,0-1.5,0c0,0-0.1,0-0.1,0c-0.1-0.1-0.1-0.2-0.2-0.2
	c0,0,0,0.1,0,0.1c0,0,0,0,0-0.1c-0.1-0.1-0.3-0.1-0.4,0c0,0,0,0.1,0,0.2c-0.3,0.1-0.6,0.1-0.9,0c0-0.1-0.1-0.1-0.1-0.2
	c-0.1,0-0.1,0.1-0.3,0.1c-0.1,0-0.2-0.1-0.3-0.2c0,0.1-0.1,0.1-0.1,0.2c-0.2,0-0.4,0-0.5,0.1c-0.1-0.1-0.1-0.1-0.2-0.2
	c0,0-0.1,0-0.1,0c-0.1,0.1-0.2,0.2-0.3,0.2c-0.2-0.1-0.4-0.1-0.5-0.1c-0.1,0-0.3,0-0.4,0.1c-0.1,0-0.2-0.1-0.3-0.1
	c-0.3,0-0.6,0-0.9-0.1c-0.2,0-0.3,0-0.4-0.2c-0.2,0.1-0.3,0.1-0.5,0.2c-0.2,0-0.4,0-0.5-0.1c-0.1-0.1-0.4-0.1-0.4-0.3
	c-0.1,0.1-0.1,0.2-0.2,0.3c-0.3,0-0.5,0-0.8,0c-0.1,0-0.2,0-0.2-0.1c0,0,0-0.1,0-0.2c-0.1,0-0.2,0-0.3,0c-0.1,0.1-0.1,0.1-0.2,0.2
	c-0.2-0.1-0.5,0.1-0.7,0c-0.1,0-0.1-0.1-0.2-0.1c0,0-0.1-0.1-0.1-0.1c-0.1,0-0.3,0-0.4,0c-0.1,0-0.2,0-0.2-0.1
	c-0.1,0-0.1,0.1-0.2,0.1c-0.2-0.1-0.3-0.1-0.5-0.2c0,0-0.1,0.1-0.1,0.2c-0.1,0-0.3-0.1-0.5-0.1c-0.1,0.1-0.2,0.2-0.4,0.2
	c-0.4,0-0.7-0.1-1.1-0.1c-0.2,0-0.4-0.1-0.7-0.1c0-0.1,0.1-0.1,0.1-0.2c-0.2-0.1-0.2,0.1-0.3,0.2c-0.2,0-0.4,0.1-0.6-0.1
	c-0.2,0.2-0.4,0-0.6-0.1c-0.2-0.1-0.4-0.1-0.5,0.1c-0.2,0-0.5-0.1-0.8-0.1c-0.1,0-0.2,0.1-0.4,0.1c-0.1,0-0.1,0-0.2-0.1
	c-0.2-0.1-0.3-0.2-0.5,0c-0.1,0.1-0.3,0.1-0.4-0.1c-0.1,0-0.2,0-0.4,0l0,0c0,0-0.1,0.1-0.1,0.1c-0.2,0-0.1-0.1-0.1-0.2l0,0
	c-0.1,0.1-0.2,0.1-0.4,0.2c-0.1,0-0.3,0-0.4,0c-0.2,0-0.3,0-0.5-0.1c0,0,0,0,0,0c0,0-0.1,0-0.1,0c0,0,0,0,0,0c0.1,0,0.1,0,0.1,0
	c0,0,0.1,0,0.2,0v-0.3c0.2-0.3,0.6-0.4,0.8-0.8h0.4c0.2-0.1,0-0.2,0-0.4c0.1,0,0.2,0,0.3,0c0.1-0.1,0.2-0.2,0.2-0.3
	c0.1,0,0.1,0,0.2-0.1c0.3,0,0.6-0.2,0.9-0.3c0.3-0.1,0.5-0.4,0.7-0.6c0.1-0.1,0.2-0.2,0.2-0.3c0.1,0,0.1,0,0.2,0
	c0,0,0.1-0.1,0.1-0.2c0.1,0,0.1,0,0.2,0c0.1-0.1,0.1-0.2,0.2-0.3c0.1-0.1,0.1,0.1,0.2,0.1c0.2,0,0.3-0.2,0.5-0.2c0,0,0.1,0,0.1-0.1
	c0-0.2,0.2-0.3,0.3-0.4c0.1-0.2,0.2-0.3,0.3-0.5c-0.1,0-0.2,0-0.3,0c0-0.2,0.2-0.3,0.1-0.5c-0.2-0.2-0.4-0.1-0.7-0.1
	c0-0.1,0-0.2,0-0.4c-0.1-0.2-0.1-0.4-0.2-0.6c-0.3-0.1-0.5-0.3-0.7-0.6c0-0.1,0.1-0.2,0.1-0.2c0-0.1-0.1-0.2-0.2-0.2
	c-0.3,0-0.5,0-0.8,0c0,0-0.1,0-0.1,0c-0.1,0-0.2,0.1-0.2,0.1c-0.1,0-0.2,0-0.4-0.1c0.2-0.1,0.3-0.1,0.5-0.2
	c-0.4-0.2-0.6,0.2-0.9,0.2c-0.1-0.2,0-0.2,0.1-0.3c0.1,0,0.1,0,0.2,0c0,0,0,0,0,0c0,0,0-0.1,0-0.1c0.1-0.1,0.1-0.2,0.2-0.3
	c-0.5,0-0.8,0.2-1.2,0.3c0.2-0.3,0.7-0.3,0.9-0.7c-0.1,0-0.2-0.1-0.2-0.1c-0.2,0-0.3,0.1-0.5,0.1c-0.6,0.3-1.2,0.5-1.7,0.9
	c-0.2,0.1-0.4,0.3-0.6,0.4c-0.2,0.1-0.3,0.2-0.5,0.2c-0.1,0-0.2,0.1-0.2,0.1c-0.4,0.2-0.7,0.5-1,0.8c-0.1,0.1-0.1,0.1-0.2,0.2
	c-0.4,0.2-0.8,0.5-1.2,0.7c-0.4,0.2-0.8,0.5-1.1,0.8c-0.5,0.4-1.1,0.8-1.7,1.2c-0.6,0.4-1.1,0.8-1.7,1.1c-0.7,0.4-1.5,0.8-2.2,1.2
	c-0.3,0.2-0.6,0.3-0.9,0.5c-0.3,0.1-0.5,0.3-0.7,0.5c-0.6,0.5-1.1,0.9-1.7,1.4c-0.2,0.2-0.4,0.4-0.6,0.5c-0.1,0.1-0.1,0.2-0.1,0.3
	c0,0.2,0,0.3,0,0.5c0.2,0.2,0.4,0.5,0.6,0.7c0.2,0.2,0.3,0.3,0.3,0.6c0,0.1,0.1,0.2,0.1,0.2c0.2,0.1,0.3,0.3,0.4,0.5
	c0.1,0,0.1,0,0.2,0.1c-0.1,0.3,0.1,0.5,0.2,0.7c0.1,0.1,0.2,0.2,0.3,0.4c0.2,0.3,0.5,0.4,0.8,0.5c0.1,0,0.2,0,0.3,0.1
	c0.2,0.1,0.4,0.2,0.6,0.4c0.2,0.1,0.3,0.3,0.6,0.3c0.1,0,0.2,0.2,0.4,0.2c0.1,0,0.3,0.1,0.4,0.1c0.1,0,0.3,0,0.5,0c0,0,0.1,0,0.1,0
	c0.3,0.1,0.7,0.2,1,0.4c0.3,0.1,0.5,0.3,0.8,0.3c0.1,0,0.2,0.1,0.3,0.1c0-0.1,0-0.1,0.1-0.2c0.2,0,0.2,0.1,0.1,0.3
	c0.1,0,0.2,0.1,0.4,0.1c0.1,0,0.1,0,0.2-0.1c0.4,0.1,0.7,0.4,1.1,0.5c0.3,0.3,0.6,0.4,0.9,0.4c0.2,0,0.5,0.1,0.6,0.3
	c0.1,0,0.1,0,0.2,0c0.1,0.1,0.1,0.1,0.2,0.2c0.2,0,0.3,0.1,0.5,0.1c0.5,0.5,1,0.7,1.6,0.9c0.3,0.4,0.6,0.6,1.1,0.6
	c0.3,0.2,0.6,0.3,0.9,0.6c0-0.1,0-0.2,0-0.3c0.3,0,0.5,0.3,0.7,0.4c0.2,0.1,0.4,0.3,0.6,0.4c0.2,0.2,0.5,0.3,0.7,0.5
	c0.3-0.1,0.5,0,0.7,0.1c0.2,0.1,0.3,0.3,0.5,0.3c0,0,0,0,0,0c0.2,0.3,0.5,0.3,0.8,0.4c0-0.1,0-0.1-0.1-0.2c-0.2-0.1-0.4-0.3-0.5-0.4
	c0,0,0.1,0,0.1,0c0.1,0.1,0.2,0.1,0.3,0.2c0.4,0.3,0.8,0.6,1.2,0.9c0.3,0.3,0.7,0.4,1.1,0.4V61c0,0,0.1,0,0.1,0
	c0.2,0.1,0.4,0.2,0.6,0.4c0.2,0.1,0.4,0.3,0.6,0.4c0.1-0.1,0.2-0.1,0.2-0.1c0.1,0,0.1,0,0.2,0c0-0.1-0.1-0.2-0.1-0.3
	c0.1,0.1,0.2,0.1,0.3,0.1c0-0.1,0.1-0.2,0.1-0.2c0.2,0,0.4-0.2,0.5-0.3c0-0.3-0.3-0.3-0.4-0.5c0-0.1,0.1-0.2,0.1-0.3
	c-0.1-0.2-0.1-0.1-0.3,0c0-0.1,0.1-0.2,0.1-0.3c-0.1-0.1-0.1-0.2-0.2-0.4c-0.2-0.1-0.3-0.2-0.5-0.3c-0.3-0.2-0.5-0.6-0.8-0.8
	c-0.2-0.3-0.6-0.5-0.8-0.8c0,0-0.1-0.1-0.1-0.1c-0.2-0.1-0.3-0.3-0.5-0.4c-0.2-0.2-0.3-0.4-0.6-0.4c-0.1,0-0.2-0.1-0.3-0.2
	c-0.1-0.2-0.3-0.4-0.5-0.4c-0.2-0.3-0.4-0.4-0.8-0.5c0,0-0.1,0-0.1-0.1c-0.1-0.2-0.2-0.2-0.4-0.3c-0.1-0.1-0.1-0.3-0.3-0.3
	c-0.3-0.2-0.6-0.4-0.6-0.8c0.1-0.1,0.3-0.1,0.4-0.1c0.2,0,0.4,0,0.6,0c0.6,0,1.2,0.1,1.7,0.1c0.6,0.1,1.3,0.1,1.9,0.1
	c0.6,0,1.1,0.1,1.7,0.1c0.1,0,0.2,0,0.2,0c0.6,0,1.2,0.1,1.9,0.1c0.4,0,0.8,0,1.1,0.1c0.5,0,0.9,0,1.4,0.1c0.3,0,0.5,0,0.8,0
	c0.4,0,0.8,0,1.1,0.1c0,0,0.1,0,0.1,0c0.3-0.1,0.7,0,1,0c0.3,0,0.7,0,1,0.1c0.4,0.1,0.9,0,1.3,0.1c0.5,0.1,1.1,0.1,1.6,0.1
	c0.1,0,0.2,0,0.2,0c0.2,0.1,0.4,0.1,0.7,0c0.2-0.1,0.5,0,0.7,0c0.1,0,0.3,0.1,0.4,0.1c0.4,0.1,0.8,0.1,1.2-0.1
	c0.1,0.1,0.2,0.1,0.2,0.1c0.3,0,0.7-0.1,1,0c0.1,0,0.1,0,0.2,0c0.3,0,0.5,0,0.8,0.1c0.1,0,0.2,0,0.3,0c0.3,0,0.5-0.1,0.8,0
	c0.1,0,0.1,0,0.2,0c0.1,0,0.2,0,0.2,0c0.2,0.1,0.5,0.1,0.8,0c0.1,0,0.3,0,0.4,0c0.3,0,0.6,0.1,0.8,0c0,0,0,0,0,0
	c0.3,0.1,0.7,0,1-0.1c0.1,0,0.2,0,0.4,0.1c0.2,0.1,0.4,0.1,0.6,0c0,0,0.1,0,0.2,0c0.3,0,0.6,0,1,0c0.1,0,0.2,0,0.3,0
	c0.1,0,0.2,0,0.2,0c0.4-0.1,0.7-0.1,1.1,0c0.1,0,0.1,0,0.2,0c0.2,0,0.3,0,0.5,0c0.3,0,0.5,0,0.8,0.1c0.2,0,0.3,0,0.5,0
	c0.2,0,0.3,0,0.4,0c0.2,0,0.4-0.1,0.6,0c0.7-0.1,1.4,0,2.1-0.1c0,0,0,0,0,0c0.4-0.1,0.7-0.1,1.1,0c0.2,0,0.4-0.1,0.8-0.1
	c0.2,0,0.5,0.1,0.7,0.1c0.1,0,0.2,0,0.3,0c0.2,0.1,0.5,0,0.7-0.1c0.1,0,0.2-0.1,0.2,0c0.1,0,0.3,0,0.4,0c0,0,0.1,0,0.2,0
	c0.2,0.1,0.4,0,0.6,0.1c0.2,0.1,0.4-0.1,0.5-0.2c0.1,0.1,0.2,0.1,0.3,0.2c0.1,0,0.2-0.1,0.3,0c0.7,0.1,1.4,0,2-0.2
	c0.3,0,0.6,0,0.9-0.1c0.2,0.1,0.4,0.1,0.5,0.1c0.5,0,1,0,1.5-0.1c0.3-0.1,0.6-0.1,0.9-0.1c0-0.1,0.1-0.2,0.3-0.2
	c0.1,0.1,0.1,0.1,0.2,0.2c0.1,0,0.2,0,0.3,0c-0.1-0.1-0.1-0.1-0.2-0.2c0.1,0,0.2-0.1,0.3-0.1c0.1,0,0.1,0.1,0.2,0.1
	c0.1-0.1,0.3-0.1,0.5-0.2c0,0,0.1,0.1,0.2,0.1c0.4-0.1,0.8,0,1.2,0c0.3,0,0.5,0,0.8-0.1c0.4-0.1,0.7-0.1,1.1-0.1
	c0.3,0,0.6-0.1,0.9-0.1c0.2-0.2,0.4-0.3,0.6-0.2c0.4,0.1,0.9,0,1.3,0c0.3,0,0.7,0,1-0.2c0.3,0,0.5-0.1,0.8,0c0.4,0.1,0.9,0,1.3-0.1
	c0.1,0,0.2,0,0.4-0.1c0.1,0,0.2,0,0.2-0.1c0.3-0.2,0.6-0.2,0.9-0.2c0.2,0.1,0.2-0.1,0.3-0.1c0.1,0,0.2,0.1,0.3,0
	c0.1,0,0.2-0.1,0.2-0.1C83,52.5,83.3,52.7,83.6,52.6c0-0.1-0.1-0.1,0-0.2C83.6,52.4,83.6,52.5,83.6,52.6L83.6,52.6z"/>
</svg>
